<svg id="logoSvg" data-name="Layer 1" xmlns="http://www.w3.org/2000/svg" viewBox="0 0 100 50"><defs><style>.cls-1{fill:#9e9e9e;}</style></defs><title>logo_100x50</title><path class="logoPath" d="M81,50A19.08,19.08,0,0,1,62,30.89V9.18H50.4a5.45,5.45,0,0,0-3.89,1.62L30.92,26.47,39.3,38.79a5.45,5.45,0,0,0,3.82,1.55H57.78l8.71,9.18H43.13a14.49,14.49,0,0,1-10.33-4.3l-.12-.15L24.44,33,9.5,48A5.52,5.52,0,0,1,3.44,49.2,5.58,5.58,0,0,1,0,44V0H9.12V35.4l31-31.1A14.48,14.48,0,0,1,50.4,0H71.09V30.89a9.89,9.89,0,1,0,19.79,0V0H100V30.89A19.08,19.08,0,0,1,81,50ZM50.39,7.07H64.05V30.89a16.93,16.93,0,1,0,33.87,0V2.11H93V30.89a12,12,0,1,1-23.94,0V2.11H50.4A12.43,12.43,0,0,0,41.53,5.8L8.81,38.67A1,1,0,0,1,7,37.92V2.11h-5V44a3.49,3.49,0,0,0,2.78,3.42,3.63,3.63,0,0,0,3.29-1.07L24.74,29.71,34.33,43.8a12.43,12.43,0,0,0,8.8,3.62H61.61l-4.72-5H43.13a7.5,7.5,0,0,1-5.35-2.23l-.12-.15L28.22,26.21,45,9.3A7.54,7.54,0,0,1,50.39,7.07Z"/></svg>